<?xml version="1.0" encoding="UTF-8"?>
<!DOCTYPE svg PUBLIC "-//W3C//DTD SVG 1.1//EN" "http://www.w3.org/Graphics/SVG/1.1/DTD/svg11.dtd">
<!-- Creator: CorelDRAW X8 -->
<svg xmlns="http://www.w3.org/2000/svg" xml:space="preserve" width="100%" height="100%" version="1.1"
     style="shape-rendering:geometricPrecision; text-rendering:geometricPrecision; image-rendering:optimizeQuality; fill-rule:evenodd; clip-rule:evenodd"
     viewBox="0 0 20000 20000"
     xmlns:xlink="http://www.w3.org/1999/xlink">
 <defs>
  <style type="text/css">
   <![CDATA[
    .fil0 {fill:#A82328}
    .fil1 {fill:#FEFEFE;fill-rule:nonzero}
   ]]>
  </style>
 </defs>
    <g id="Ebene_x0020_1">
  <metadata id="CorelCorpID_0Corel-Layer"/>
        <rect class="fil0" width="20000" height="20000"/>
        <path class="fil1"
              d="M4201 10126l0 -5340 5340 0 0 1678 -3662 0 0 118 0 3544 -1678 0zm2965 2964l0 -5340 5339 0 0 3031 349 348 938 -938 0 -3727 -2964 0 0 -2964 -7913 0 0 7912 2964 0 0 2965 4157 0 -1287 -1287 -1583 0z"/>
        <path class="fil1" d="M16615 9188l-3761 3761 -2248 -2248 -1213 1213 2854 2854c161,161 379,252 607,252 227,0 445,-91 606,-252l4368 -4368 -1213 -1212z"/>
 </g>
</svg>
